<svg width="258" height="34" viewBox="0 0 258 34" fill="none" xmlns="http://www.w3.org/2000/svg">
<g clip-path="url(#clip0_3_616)">
<path d="M6.16756 31.4877C4.22376 30.4665 2.70379 29.0512 1.62227 27.2421C0.540758 25.433 0 23.3758 0 21.0852C0 18.7946 0.540758 16.7375 1.62227 14.9429C2.70379 13.1484 4.22376 11.7477 6.16756 10.741C8.12599 9.73435 10.3329 9.22371 12.8028 9.22371C15.3312 9.22371 17.5089 9.77812 19.3504 10.9015C21.1919 12.025 22.4926 13.5715 23.2672 15.5557L17.2166 18.7363C16.2081 16.6645 14.7174 15.6286 12.7736 15.6286C11.3705 15.6286 10.2159 16.1101 9.29519 17.073C8.37444 18.0359 7.92137 19.3636 7.92137 21.0706C7.92137 22.7922 8.37444 24.1491 9.29519 25.1266C10.2159 26.1041 11.3705 26.5856 12.7736 26.5856C14.7174 26.5856 16.2081 25.5497 17.2166 23.4779L23.2672 26.6585C22.4926 28.6427 21.1919 30.1893 19.3504 31.3127C17.5089 32.4361 15.3312 32.9905 12.8028 32.9905C10.3329 33.0197 8.12599 32.509 6.16756 31.4877Z" fill="white"/>
<path d="M50.7581 1.05342H58.5041V32.7133H50.685L50.7581 1.05342Z" fill="white"/>
<path d="M61.281 1.05342H69.1731L69.1439 32.7133H61.3249L61.281 1.05342Z" fill="white"/>
<path d="M95.7581 23.1716H79.5353C79.8715 24.3679 80.4999 25.2725 81.4499 25.9144C82.3999 26.5564 83.5837 26.8774 85.016 26.8774C86.0829 26.8774 87.0182 26.7169 87.7928 26.4105C88.5674 26.1041 89.3567 25.5935 90.1605 24.8786L94.2819 29.2993C92.1189 31.7941 88.9474 33.0343 84.7675 33.0343C82.166 33.0343 79.8715 32.5236 77.8984 31.5023C75.9254 30.481 74.3908 29.0658 73.3093 27.2567C72.2278 25.4476 71.687 23.3904 71.687 21.0998C71.687 18.8384 72.2132 16.7958 73.2654 15.0013C74.3177 13.2067 75.7792 11.7915 77.65 10.7702C79.5207 9.74894 81.6107 9.2383 83.9491 9.2383C86.1706 9.2383 88.1874 9.71976 89.9997 10.6681C91.812 11.6164 93.2443 12.9879 94.2965 14.7824C95.3488 16.577 95.875 18.7071 95.875 21.1728C95.875 21.2311 95.8457 21.8877 95.7581 23.1716ZM80.9676 16.0226C80.1638 16.7375 79.6376 17.7004 79.4184 18.9113H88.5528C88.3336 17.7004 87.8221 16.7375 87.0036 16.0226C86.1998 15.3077 85.1913 14.9575 83.9783 14.9575C82.7799 14.9575 81.7714 15.3222 80.9676 16.0226Z" fill="white"/>
<path d="M103.943 31.4877C101.999 30.4665 100.479 29.0512 99.3973 27.2421C98.3158 25.433 97.775 23.3758 97.775 21.0852C97.775 18.7946 98.3158 16.7375 99.3973 14.9429C100.479 13.1484 101.999 11.7477 103.943 10.741C105.886 9.73435 108.093 9.2383 110.563 9.2383C113.092 9.2383 115.269 9.79271 117.111 10.9161C118.952 12.0395 120.253 13.5861 121.028 15.5703L114.977 18.7508C113.969 16.6791 112.478 15.6432 110.534 15.6432C109.131 15.6432 107.976 16.1247 107.056 17.0876C106.135 18.0505 105.682 19.3782 105.682 21.0852C105.682 22.8068 106.135 24.1637 107.056 25.1412C107.976 26.1187 109.131 26.6002 110.534 26.6002C112.478 26.6002 113.969 25.5643 114.977 23.4925L121.028 26.6731C120.253 28.6573 118.952 30.2038 117.111 31.3273C115.269 32.4507 113.092 33.0051 110.563 33.0051C108.093 33.0197 105.886 32.509 103.943 31.4877Z" fill="white"/>
<path d="M123.395 9.66141V1.05342H131.214L131.141 9.51551H136.256V16.2268L131.214 16.2122V23.8573C131.214 24.6743 131.433 25.3163 131.857 25.7977C132.281 26.2646 132.851 26.498 133.567 26.498C134.473 26.498 135.555 26.2646 136.242 25.7685L138.171 31.4148C137.513 31.8379 136.417 32.1589 135.467 32.3923C134.517 32.6258 133.509 32.7279 132.442 32.7279C129.533 32.7279 127.297 31.9984 125.734 30.5248C124.17 29.0513 123.38 26.8628 123.38 23.9448V17.1022L123.395 9.66141Z" fill="white"/>
<path d="M176.93 9.61763L167.723 32.6403H159.655L150.477 9.61763H158.501L163.85 23.6822L169.491 9.61763H176.93Z" fill="white"/>
<path d="M200.592 23.1716H184.369C184.705 24.3679 185.334 25.2725 186.284 25.9144C187.234 26.5564 188.418 26.8774 189.85 26.8774C190.917 26.8774 191.852 26.7169 192.627 26.4105C193.416 26.1041 194.191 25.5935 194.994 24.8786L199.116 29.2993C196.953 31.7941 193.781 33.0343 189.601 33.0343C187 33.0343 184.705 32.5236 182.732 31.5023C180.759 30.4811 179.225 29.0658 178.143 27.2567C177.062 25.4476 176.521 23.3904 176.521 21.0998C176.521 18.8384 177.047 16.7958 178.099 15.0013C179.152 13.2067 180.613 11.7915 182.484 10.7702C184.355 9.74894 186.445 9.2383 188.783 9.2383C191.004 9.2383 193.021 9.71976 194.834 10.6681C196.646 11.6164 198.078 12.9879 199.13 14.7824C200.183 16.577 200.709 18.7071 200.709 21.1728C200.709 21.2311 200.665 21.8877 200.592 23.1716ZM185.787 16.0226C184.983 16.7375 184.457 17.7004 184.238 18.9113H193.372C193.153 17.7004 192.641 16.7375 191.823 16.0226C191.019 15.3077 190.011 14.9575 188.798 14.9575C187.614 14.9575 186.605 15.3222 185.787 16.0226Z" fill="white"/>
<path d="M227.893 9.53011L223.026 23.1716H218.393L215.821 15.7454L213.146 23.1716H208.513L203.646 9.53011H208.177L210.969 17.7879L213.862 9.53011H217.94L220.761 17.8609L223.654 9.53011H227.893Z" fill="white"/>
<path d="M241.806 17.5107L231.868 17.5691C232.073 18.2694 232.467 18.8092 233.052 19.1886C233.636 19.5679 234.367 19.743 235.229 19.743C235.887 19.743 236.457 19.6408 236.925 19.4512C237.407 19.2615 237.889 18.9551 238.372 18.532L240.915 21.129C239.599 22.6172 237.656 23.3612 235.113 23.3758C233.52 23.3904 232.116 23.0986 230.903 22.5004C229.69 21.9023 228.74 21.0706 228.083 20.0056C227.41 18.9405 227.074 17.715 227.06 16.3581C227.045 15.0159 227.367 13.8049 228.01 12.7399C228.653 11.6748 229.544 10.8286 230.684 10.2158C231.824 9.60305 233.11 9.29666 234.528 9.28207C235.887 9.26748 237.129 9.54469 238.24 10.0991C239.351 10.6535 240.242 11.456 240.885 12.521C241.543 13.5861 241.865 14.8408 241.879 16.2998C241.879 16.3581 241.85 16.7521 241.806 17.5107ZM232.716 13.338C232.219 13.7611 231.912 14.3301 231.78 15.0596L237.378 15.0159C237.232 14.301 236.925 13.732 236.428 13.3089C235.931 12.9003 235.317 12.6815 234.572 12.6961C233.826 12.6961 233.213 12.9149 232.716 13.338Z" fill="white"/>
<path d="M254.697 10.3909C255.72 10.9453 256.524 11.7477 257.123 12.7982C257.722 13.8487 258.014 15.0596 258.014 16.4311C258.014 17.8171 257.722 19.0281 257.123 20.0785C256.524 21.129 255.72 21.946 254.697 22.515C253.674 23.084 252.548 23.3612 251.306 23.3612C249.508 23.3612 248.164 22.836 247.272 21.8001V23.1278H243.107V4.84677H247.506V10.9453C248.427 10.0262 249.698 9.55928 251.306 9.55928C252.548 9.55928 253.674 9.83648 254.697 10.3909ZM253.63 18.9697C254.302 18.3278 254.638 17.4524 254.638 16.3144C254.638 15.2055 254.302 14.3301 253.63 13.7028C252.958 13.0754 252.081 12.7544 251.028 12.7544C249.976 12.7544 249.099 13.0754 248.427 13.7028C247.755 14.3301 247.419 15.2055 247.419 16.3144C247.419 17.4378 247.755 18.3278 248.427 18.9697C249.099 19.6117 249.976 19.9326 251.028 19.9326C252.081 19.9326 252.958 19.6117 253.63 18.9697Z" fill="white"/>
<path d="M36.2454 9.28207C29.7124 9.28207 24.4072 14.5782 24.4072 21.0998C24.4072 27.6215 29.7124 32.9176 36.2454 32.9176C42.7783 32.9176 48.0836 27.6215 48.0836 21.0998C48.0836 14.5782 42.7783 9.28207 36.2454 9.28207ZM36.4208 13.8049C38.3646 13.8049 39.9284 15.3806 39.9284 17.3065C39.9284 19.2469 38.3499 20.808 36.4208 20.808C34.477 20.808 32.9131 19.2323 32.9131 17.3065C32.8985 15.3806 34.477 13.8049 36.4208 13.8049ZM32.7378 26.819C30.794 26.819 29.2301 25.2433 29.2301 23.3175C29.2301 21.377 30.8086 19.8159 32.7378 19.8159C34.6816 19.8159 36.2454 21.3916 36.2454 23.3175C36.2454 25.2579 34.6816 26.819 32.7378 26.819ZM39.7822 26.9941C37.8384 26.9941 36.2746 25.4184 36.2746 23.4925C36.2746 21.5521 37.853 19.991 39.7822 19.991C41.726 19.991 43.2898 21.5667 43.2898 23.4925C43.2898 25.4184 41.726 26.9941 39.7822 26.9941Z" fill="white"/>
<path d="M152.581 25.8415C151.894 26.323 150.813 26.571 149.907 26.571C149.191 26.571 148.621 26.3376 148.197 25.8707C147.773 25.4038 147.554 24.7619 147.554 23.9302L147.51 9.50092H139.735V24.0178C139.735 26.9357 140.524 29.1242 142.088 30.5978C143.652 32.0714 145.888 32.8008 148.796 32.8008C149.863 32.8008 150.871 32.6841 151.821 32.4653C152.771 32.2318 153.868 31.9109 154.525 31.4878L152.581 25.8415Z" fill="white"/>
<path d="M143.622 7.99816C145.566 7.99816 147.13 6.42246 147.13 4.49661C147.13 2.55617 145.552 0.995056 143.622 0.995056C141.679 0.995056 140.115 2.57076 140.115 4.49661C140.1 6.42246 141.679 7.99816 143.622 7.99816Z" fill="white"/>
</g>
<defs>
<clipPath id="clip0_3_616">
<rect width="258" height="32.0392" fill="white" transform="translate(0 0.980469)"/>
</clipPath>
</defs>
</svg>
