<?xml version="1.0" encoding="UTF-8"?> <svg xmlns="http://www.w3.org/2000/svg" width="109" height="61" viewBox="0 0 109 61" fill="none"> <path d="M72.4312 21.6681C75.4366 18.0422 80.1279 15.6195 84.6576 15.6195C89.9794 15.6195 93.9768 17.7255 98.842 22.0424L99.9636 23.0659L108.592 10.8027L108.158 10.3302C102.179 3.76801 93.6119 0 84.6576 0C74.3317 0 64.6863 5.98108 60.0937 11.5341C56.6948 15.6475 54.1517 20.5572 51.4578 25.7564C46.8392 34.6682 43.185 41.0199 37.9533 43.8046L37.9443 43.8169L37.9364 43.8136C36.008 44.8393 33.8598 45.3807 31.3649 45.3807C27.2801 45.3807 23.4356 43.8334 20.5457 41.0243C17.6537 38.2123 16.0652 34.4757 16.0652 30.5017C16.0652 22.295 22.9259 15.6195 31.3649 15.6195C37.2026 15.6195 41.9192 17.8954 45.3836 22.3885L45.5652 22.6213L53.4712 8.91525C47.5899 3.24008 39.6422 0 31.3649 0C14.07 0 0 13.6837 0 30.5017C0 47.316 14.07 61.0001 31.3649 61.0001C51.1791 61.0001 59.6298 44.6925 65.8079 32.772C68.1082 28.3354 70.0968 24.4883 72.4312 21.6681Z" fill="white"></path> </svg> 