<?xml version="1.0" encoding="UTF-8"?> <svg xmlns="http://www.w3.org/2000/svg" width="33" height="33" viewBox="0 0 33 33" fill="none"> <path fill-rule="evenodd" clip-rule="evenodd" d="M16.6666 0.666992C7.83009 0.666992 0.666626 7.83046 0.666626 16.667C0.666626 25.5035 7.83009 32.667 16.6666 32.667C25.5032 32.667 32.6666 25.5035 32.6666 16.667C32.6666 7.83046 25.5032 0.666992 16.6666 0.666992ZM13.1488 8.18519C14.059 8.14379 14.3499 8.13366 16.6674 8.13366H16.6648C18.983 8.13366 19.2728 8.14379 20.183 8.18519C21.0915 8.22679 21.7119 8.37066 22.256 8.58166C22.8177 8.79946 23.2924 9.09099 23.767 9.56566C24.2418 10.04 24.5333 10.5161 24.752 11.0773C24.9618 11.6199 25.1058 12.24 25.1484 13.1485C25.1893 14.0587 25.2 14.3495 25.2 16.6671C25.2 18.9846 25.1893 19.2747 25.1484 20.185C25.1058 21.0931 24.9618 21.7133 24.752 22.2561C24.5333 22.8172 24.2418 23.2933 23.767 23.7676C23.2929 24.2423 22.8176 24.5345 22.2565 24.7525C21.7135 24.9635 21.0927 25.1073 20.1843 25.1489C19.274 25.1904 18.9841 25.2005 16.6664 25.2005C14.349 25.2005 14.0584 25.1904 13.1481 25.1489C12.2398 25.1073 11.6196 24.9635 11.0766 24.7525C10.5157 24.5345 10.0396 24.2423 9.56549 23.7676C9.09096 23.2933 8.79943 22.8172 8.58129 22.2559C8.37043 21.7133 8.22663 21.0933 8.18483 20.1848C8.14363 19.2746 8.13329 18.9846 8.13329 16.6671C8.13329 14.3495 8.14396 14.0585 8.18469 13.1483C8.22556 12.2402 8.36956 11.6199 8.58109 11.0771C8.79976 10.5161 9.09136 10.04 9.56603 9.56566C10.0404 9.09119 10.5164 8.79959 11.0777 8.58166C11.6203 8.37066 12.2404 8.22679 13.1488 8.18519Z" fill="white"></path> <path fill-rule="evenodd" clip-rule="evenodd" d="M15.902 9.67181C16.0506 9.67161 16.2105 9.67168 16.3831 9.67174L16.6675 9.67181C18.9459 9.67181 19.216 9.68001 20.1157 9.72088C20.9477 9.75894 21.3993 9.89794 21.7001 10.0147C22.0983 10.1694 22.3822 10.3543 22.6807 10.653C22.9794 10.9517 23.1643 11.2361 23.3193 11.6343C23.4361 11.9348 23.5753 12.3863 23.6132 13.2183C23.6541 14.1179 23.6629 14.3881 23.6629 16.6655C23.6629 18.9429 23.6541 19.2131 23.6132 20.1127C23.5751 20.9447 23.4361 21.3962 23.3193 21.6967C23.1647 22.0949 22.9794 22.3785 22.6807 22.6769C22.3821 22.9756 22.0985 23.1605 21.7001 23.3152C21.3997 23.4325 20.9477 23.5712 20.1157 23.6092C19.2161 23.6501 18.9459 23.659 16.6675 23.659C14.3889 23.659 14.1189 23.6501 13.2193 23.6092C12.3873 23.5708 11.9357 23.4318 11.6347 23.315C11.2365 23.1603 10.9521 22.9754 10.6534 22.6767C10.3547 22.3781 10.1699 22.0943 10.0148 21.6959C9.89801 21.3955 9.75881 20.9439 9.72094 20.1119C9.68007 19.2124 9.67188 18.9421 9.67188 16.6633C9.67188 14.3846 9.68007 14.1158 9.72094 13.2162C9.75901 12.3842 9.89801 11.9327 10.0148 11.6319C10.1695 11.2336 10.3547 10.9492 10.6534 10.6505C10.9521 10.3519 11.2365 10.1669 11.6347 10.0119C11.9355 9.89461 12.3873 9.75594 13.2193 9.71768C14.0065 9.68214 14.3116 9.67148 15.902 9.66968V9.67181ZM21.2226 11.0887C20.6573 11.0887 20.1985 11.5469 20.1985 12.1124C20.1985 12.6777 20.6573 13.1364 21.2226 13.1364C21.7879 13.1364 22.2466 12.6777 22.2466 12.1124C22.2466 11.5471 21.7879 11.0884 21.2226 11.0884V11.0887ZM12.2853 16.6675C12.2853 14.2474 14.2473 12.2853 16.6673 12.2852C19.0875 12.2852 21.0491 14.2473 21.0491 16.6675C21.0491 19.0876 19.0876 21.0489 16.6675 21.0489C14.2474 21.0489 12.2853 19.0876 12.2853 16.6675Z" fill="white"></path> <path d="M16.6675 13.8225C18.2383 13.8225 19.5119 15.096 19.5119 16.667C19.5119 18.2378 18.2383 19.5114 16.6675 19.5114C15.0965 19.5114 13.823 18.2378 13.823 16.667C13.823 15.096 15.0965 13.8225 16.6675 13.8225Z" fill="white"></path> </svg> 