<?xml version="1.0" encoding="UTF-8"?> <svg xmlns="http://www.w3.org/2000/svg" width="107" height="33" viewBox="0 0 107 33" fill="none"> <path fill-rule="evenodd" clip-rule="evenodd" d="M57.6484 9.94291H48.4954C48.9422 9.37473 49.2838 8.72256 49.4916 8.01459H58.6446C58.4368 8.72256 58.0952 9.37473 57.6484 9.94291ZM47.8418 9.94291C48.2886 9.37473 48.6302 8.72256 48.838 8.01459H37.5299C37.7377 8.72256 38.0794 9.37473 38.5261 9.94291H47.8418ZM58.7932 7.37181H49.6403C49.6938 7.05825 49.7216 6.73614 49.7216 6.40763C49.7216 6.07914 49.6938 5.75704 49.6403 5.4435H58.7932C58.8467 5.75704 58.8746 6.07914 58.8746 6.40763C58.8746 6.73614 58.8467 7.05825 58.7932 7.37181ZM49.068 6.40767C49.068 6.07916 49.0401 5.75705 48.9866 5.4435H37.3813C37.3278 5.75705 37.3 6.07916 37.3 6.40767C37.3 6.73616 37.3278 7.05826 37.3813 7.37181H48.9866C49.0401 7.05826 49.068 6.73616 49.068 6.40767ZM58.6446 4.80072H49.4916C49.2839 4.09275 48.9422 3.44057 48.4954 2.87238H57.6484C58.0952 3.44057 58.4368 4.09275 58.6446 4.80072ZM48.838 4.80072C48.6302 4.09274 48.2886 3.44057 47.8418 2.87238H38.5262C38.0794 3.44057 37.7377 4.09274 37.53 4.80072H48.838ZM57.0604 2.22961H48.9208C49.9777 1.23423 51.4115 0.622656 52.9906 0.622656C54.5697 0.622656 56.0035 1.23423 57.0604 2.22961ZM59.2984 4.80072C59.0906 4.09274 58.749 3.44057 58.3022 2.87238H67.4551C67.9019 3.44057 68.2436 4.09274 68.4514 4.80072H59.2984ZM58.7276 2.22961H66.8671C65.8102 1.23425 64.3764 0.622681 62.7973 0.622681C61.2183 0.622681 59.7845 1.23425 58.7276 2.22961ZM59.4471 5.4435H68.6C68.6535 5.75705 68.6813 6.07915 68.6813 6.40766C68.6813 6.73616 68.6535 7.05826 68.6 7.37181H59.4471C59.5006 7.05826 59.5284 6.73616 59.5284 6.40766C59.5284 6.07915 59.5006 5.75705 59.4471 5.4435ZM59.2984 8.01459H68.4514C68.2436 8.72256 67.9019 9.37473 67.4551 9.94291H58.3022C58.749 9.37473 59.0906 8.72256 59.2984 8.01459ZM62.7973 12.1926C61.2182 12.1926 59.7844 11.5811 58.7276 10.5857H66.8671C65.8102 11.5811 64.3764 12.1926 62.7973 12.1926ZM52.9906 12.1926C54.5697 12.1926 56.0035 11.581 57.0603 10.5857H48.9209C49.9777 11.581 51.4115 12.1926 52.9906 12.1926ZM43.184 0.622691C41.6049 0.622691 40.1711 1.23425 39.1142 2.22961H47.2537C46.1968 1.23425 44.763 0.622691 43.184 0.622691ZM43.184 12.1926C41.6049 12.1926 40.1711 11.5811 39.1142 10.5857H47.2537C46.1969 11.5811 44.7631 12.1926 43.184 12.1926ZM12.146 19.4238C11.9079 19.9548 11.7889 20.6115 11.7889 21.394C11.7889 22.6167 12.1318 23.5774 12.8175 24.2761C13.5033 24.9712 14.4271 25.3188 15.589 25.3188C16.7366 25.3188 17.6533 24.9695 18.3391 24.2708C19.0248 23.5687 19.3677 22.5975 19.3677 21.3574C19.3677 20.1068 19.0213 19.1304 18.3284 18.4282C17.6391 17.726 16.7188 17.375 15.5676 17.375C14.9316 17.375 14.3702 17.4763 13.8834 17.6789C13.5175 17.8291 13.1799 18.0597 12.8708 18.3706C12.5652 18.6815 12.3236 19.0325 12.146 19.4238ZM14.0274 23.3224C13.6187 22.8717 13.4144 22.2115 13.4144 21.3416C13.4144 20.4578 13.6134 19.7976 14.0114 19.3609C14.4093 18.9208 14.9334 18.7007 15.5836 18.7007C16.2338 18.7007 16.7544 18.9173 17.1452 19.3504C17.5396 19.7836 17.7368 20.4404 17.7368 21.3207C17.7368 22.2115 17.5343 22.8805 17.1292 23.3276C16.7277 23.7713 16.2125 23.9931 15.5836 23.9931C14.9547 23.9931 14.436 23.7695 14.0274 23.3224ZM0.498438 17.506L2.36383 25.1878H4.07467L5.62561 19.4448L7.18188 25.1878H8.85541L10.7528 17.506H9.16453L7.96535 22.8717L6.59562 17.506H4.71956L3.2912 22.7827L2.11334 17.506H0.498438ZM21.1553 25.1878V17.506H24.4757C25.3107 17.506 25.9165 17.5758 26.2931 17.7156C26.6733 17.8518 26.9771 18.0963 27.2045 18.4492C27.4319 18.802 27.5456 19.2055 27.5456 19.6596C27.5456 20.236 27.3733 20.7128 27.0286 21.0901C26.684 21.4639 26.1688 21.6997 25.483 21.7975C25.8241 21.9932 26.1048 22.208 26.3251 22.4421C26.549 22.6761 26.8492 23.0918 27.2258 23.6892L28.1798 25.1878H26.2931L25.1526 23.5163C24.7475 22.9189 24.4704 22.5434 24.3211 22.3897C24.1719 22.2325 24.0138 22.1259 23.8468 22.07C23.6798 22.0106 23.4151 21.9809 23.0527 21.9809H22.7329V25.1878H21.1553ZM22.7329 20.7548H23.9001C24.6569 20.7548 25.1295 20.7233 25.3178 20.6604C25.5061 20.5976 25.6536 20.4893 25.7602 20.3356C25.8667 20.1819 25.92 19.9897 25.92 19.7592C25.92 19.5007 25.849 19.2928 25.7069 19.1356C25.5683 18.9749 25.3711 18.8736 25.1153 18.8317C24.9873 18.8142 24.6036 18.8055 23.964 18.8055H22.7329V20.7548ZM29.6263 17.5688V25.1878H35.1266V23.8935H31.2039V17.5688H29.6263ZM36.7969 17.506H39.6803C40.3305 17.506 40.8262 17.5549 41.1673 17.6527C41.6256 17.7854 42.0182 18.0212 42.3451 18.3601C42.672 18.6989 42.9207 19.1146 43.0913 19.6072C43.2618 20.0963 43.3471 20.7006 43.3471 21.4202C43.3471 22.0525 43.2672 22.5975 43.1073 23.0551C42.9118 23.6141 42.6329 24.0665 42.2705 24.4123C41.9969 24.6743 41.6274 24.8787 41.1619 25.0254C40.8137 25.1337 40.3483 25.1878 39.7655 25.1878H36.7969V17.506ZM38.3745 18.8055V23.8935H39.5524C39.9929 23.8935 40.311 23.8691 40.5064 23.8202C40.7622 23.7573 40.9736 23.6507 41.1406 23.5005C41.3112 23.3503 41.4497 23.104 41.5563 22.7617C41.6629 22.4159 41.7162 21.946 41.7162 21.3521C41.7162 20.7583 41.6629 20.3024 41.5563 19.9845C41.4497 19.6666 41.3005 19.4186 41.1086 19.2404C40.9168 19.0622 40.6734 18.9417 40.3785 18.8788C40.1582 18.8299 39.7265 18.8055 39.0833 18.8055H38.3745ZM53.7443 25.1878H55.4604L52.3319 17.506H50.6637L47.6205 25.1878H49.294L49.9389 23.4429H53.0621L53.7443 25.1878ZM51.4792 19.298L52.5558 22.1486H50.4239L51.4792 19.298ZM56.8909 25.1878V17.5688H58.4685V23.8935H62.3912V25.1878H56.8909ZM64.1095 17.5688V25.1878H69.6097V23.8935H65.6871V17.5688H64.1095ZM71.2374 25.1878V17.506H72.815V25.1878H71.2374ZM80.1988 25.1878H81.9149L78.7864 17.506H77.1182L74.075 25.1878H75.7485L76.3934 23.4429H79.5166L80.1988 25.1878ZM77.9337 19.298L79.0103 22.1486H76.8784L77.9337 19.298ZM83.3188 25.1878V17.506H84.8538L88.0516 22.6359V17.506H89.5172V25.1878H87.9343L84.7845 20.1784V25.1878H83.3188ZM98.2654 22.8403L96.7358 22.3635C96.6043 22.9259 96.3876 23.3381 96.0856 23.6001C95.7835 23.8621 95.4229 23.9931 95.0036 23.9931C94.4351 23.9931 93.9732 23.787 93.6179 23.3748C93.2626 22.9626 93.0849 22.2709 93.0849 21.2997C93.0849 20.3845 93.2644 19.7225 93.6232 19.3138C93.9857 18.905 94.4564 18.7007 95.0356 18.7007C95.4549 18.7007 95.8102 18.816 96.1016 19.0465C96.3965 19.2771 96.5901 19.5915 96.6825 19.9897L98.2441 19.6229C98.0664 19.0081 97.7999 18.5365 97.4446 18.2081C96.8477 17.6527 96.0714 17.375 95.1156 17.375C94.0212 17.375 93.1382 17.7295 92.4667 18.4387C91.7952 19.1443 91.4594 20.1364 91.4594 21.415C91.4594 22.6237 91.7934 23.5774 92.4614 24.2761C93.1293 24.9712 93.9821 25.3188 95.0196 25.3188C95.8582 25.3188 96.5492 25.1162 97.0929 24.711C97.6401 24.3023 98.0309 23.6787 98.2654 22.8403ZM100.17 25.1878V17.506H105.964V18.8055H101.748V20.5085H105.67V21.8028H101.748V23.8935H106.113V25.1878H100.17ZM1.91614 29.3955C1.55194 29.7056 1.36984 30.1826 1.36984 30.8267C1.36984 31.414 1.52196 31.8638 1.8262 32.176C2.13266 32.4882 2.53349 32.6444 3.02871 32.6444C3.33739 32.6444 3.62164 32.5734 3.88147 32.4315C4.14351 32.2896 4.34226 32.0909 4.47773 31.8354C4.61541 31.5778 4.68425 31.2252 4.68425 30.7776C4.68425 30.2252 4.52991 29.7929 4.22123 29.4807C3.91256 29.1663 3.51505 29.0091 3.02871 29.0091C2.59123 29.0091 2.22038 29.1379 1.91614 29.3955ZM2.28255 31.8289C2.08491 31.6062 1.98609 31.2721 1.98609 30.8267C1.98609 30.3813 2.08491 30.0484 2.28255 29.8279C2.4802 29.6073 2.72892 29.4971 3.02871 29.4971C3.32407 29.4971 3.57057 29.6084 3.76821 29.8311C3.96807 30.0516 4.068 30.377 4.068 30.8071C4.068 31.2634 3.96918 31.6029 3.77154 31.8256C3.5739 32.0483 3.32629 32.1597 3.02871 32.1597C2.72892 32.1597 2.4802 32.0494 2.28255 31.8289ZM5.77244 32.5658V29.5462H5.2428V29.0877H5.77244V28.7176C5.77244 28.484 5.79354 28.3104 5.83573 28.1969C5.89347 28.0441 5.99451 27.9207 6.13886 27.8268C6.28543 27.7308 6.48973 27.6827 6.75178 27.6827C6.92055 27.6827 7.10709 27.7024 7.31139 27.7417L7.22146 28.2558C7.0971 28.234 6.9794 28.2231 6.86836 28.2231C6.68626 28.2231 6.55746 28.2613 6.48196 28.3377C6.40646 28.4141 6.3687 28.5571 6.3687 28.7667V29.0877H7.05823V29.5462H6.3687V32.5658H5.77244ZM10.0907 27.7646V32.5658H10.7369V27.7646H10.0907ZM12.0416 29.0877H12.5813V29.5822C12.8411 29.2001 13.2164 29.0091 13.7072 29.0091C13.9204 29.0091 14.1158 29.0473 14.2934 29.1237C14.4733 29.198 14.6077 29.2962 14.6965 29.4185C14.7853 29.5407 14.8475 29.6859 14.883 29.854C14.9052 29.9632 14.9163 30.1543 14.9163 30.4272V32.5658H14.3168V30.4501C14.3168 30.2099 14.2934 30.0309 14.2468 29.913C14.2002 29.7929 14.1169 29.6979 13.997 29.6281C13.8793 29.556 13.7405 29.52 13.5806 29.52C13.3252 29.52 13.1042 29.5997 12.9177 29.7591C12.7334 29.9185 12.6412 30.2208 12.6412 30.6663V32.5658H12.0416V29.0877ZM17.4735 32.5592L17.3869 32.0385C17.2781 32.0538 17.1904 32.0614 17.1238 32.0614C17.0349 32.0614 16.9661 32.0472 16.9172 32.0188C16.8706 31.9904 16.8362 31.9522 16.814 31.9042C16.794 31.8562 16.784 31.7481 16.784 31.58V29.5462H17.3869V29.0877H16.784V27.8727L16.1877 28.2264V29.0877H15.748V29.5462H16.1877V31.5472C16.1877 31.9009 16.2122 32.1335 16.261 32.2448C16.3099 32.354 16.3943 32.4424 16.5142 32.5101C16.6341 32.5778 16.8029 32.6116 17.0205 32.6116C17.1538 32.6116 17.3048 32.5941 17.4735 32.5592ZM20.637 31.4457L21.2566 31.521C21.1588 31.8769 20.9779 32.1531 20.7136 32.3496C20.4493 32.5461 20.1118 32.6444 19.701 32.6444C19.1835 32.6444 18.7727 32.4882 18.4685 32.176C18.1664 31.8616 18.0154 31.4217 18.0154 30.8562C18.0154 30.2711 18.1687 29.8169 18.4751 29.4938C18.7816 29.1707 19.1791 29.0091 19.6676 29.0091C20.1407 29.0091 20.5271 29.1674 20.8269 29.484C21.1266 29.8006 21.2765 30.246 21.2765 30.8202C21.2765 30.8551 21.2754 30.9075 21.2732 30.9774H18.635C18.6572 31.3595 18.7671 31.652 18.9648 31.8551C19.1624 32.0581 19.4089 32.1597 19.7043 32.1597C19.9241 32.1597 20.1118 32.1029 20.2672 31.9894C20.4227 31.8758 20.5459 31.6946 20.637 31.4457ZM18.6683 30.4927H20.6436C20.617 30.2001 20.5415 29.9807 20.4171 29.8344C20.2261 29.6073 19.9785 29.4938 19.6743 29.4938C19.3989 29.4938 19.1669 29.5844 18.9781 29.7656C18.7916 29.9468 18.6883 30.1892 18.6683 30.4927ZM22.7844 29.0877H22.2448V32.5658H22.8444V30.7449C22.8444 30.496 22.8777 30.2667 22.9443 30.0571C22.9888 29.9195 23.0631 29.8126 23.1675 29.7361C23.2719 29.6575 23.3896 29.6182 23.5206 29.6182C23.6672 29.6182 23.8137 29.6608 23.9603 29.746L24.1668 29.199C23.9581 29.0724 23.7527 29.0091 23.5506 29.0091C23.4107 29.0091 23.2819 29.0484 23.1642 29.127C23.0487 29.2056 22.9221 29.3683 22.7844 29.615V29.0877ZM24.762 29.0877H25.3017V29.5822C25.5615 29.2001 25.9368 29.0091 26.4276 29.0091C26.6408 29.0091 26.8362 29.0473 27.0138 29.1237C27.1937 29.198 27.3281 29.2962 27.4169 29.4185C27.5057 29.5407 27.5679 29.6859 27.6034 29.854C27.6256 29.9632 27.6367 30.1543 27.6367 30.4272V32.5658H27.0371V30.4501C27.0371 30.2099 27.0138 30.0309 26.9672 29.913C26.9206 29.7929 26.8373 29.6979 26.7174 29.6281C26.5997 29.556 26.4609 29.52 26.301 29.52C26.0456 29.52 25.8246 29.5997 25.6381 29.7591C25.4538 29.9185 25.3616 30.2208 25.3616 30.6663V32.5658H24.762V29.0877ZM30.4638 32.5297C30.6703 32.4533 30.8846 32.3223 31.1066 32.1367C31.1244 32.3005 31.1644 32.4435 31.2266 32.5658H31.8528C31.7773 32.4326 31.7262 32.2939 31.6996 32.1498C31.6751 32.0035 31.6629 31.6564 31.6629 31.1084V30.3224C31.6629 30.0604 31.6529 29.8792 31.633 29.7787C31.5974 29.6172 31.5352 29.484 31.4464 29.3792C31.3576 29.2722 31.2188 29.1838 31.03 29.1139C30.8413 29.044 30.5959 29.0091 30.2939 29.0091C29.9896 29.0091 29.722 29.0506 29.4911 29.1335C29.2601 29.2143 29.0836 29.3311 28.9614 29.484C28.8393 29.6346 28.7516 29.8333 28.6983 30.08L29.2846 30.1586C29.349 29.9119 29.4478 29.7405 29.581 29.6444C29.7165 29.5462 29.9252 29.4971 30.2073 29.4971C30.5093 29.4971 30.7369 29.5637 30.8901 29.6968C31.0034 29.7951 31.06 29.9643 31.06 30.2045C31.06 30.2263 31.0589 30.2776 31.0567 30.3584C30.8279 30.437 30.4715 30.5047 29.9874 30.5615C29.7498 30.5898 29.5721 30.6193 29.4544 30.6499C29.2945 30.6935 29.1502 30.758 29.0214 30.8431C28.8948 30.9283 28.7916 31.0418 28.7116 31.1837C28.6339 31.3234 28.595 31.4785 28.595 31.6488C28.595 31.9391 28.6994 32.1782 28.9081 32.366C29.1169 32.5516 29.4156 32.6444 29.8042 32.6444C30.0396 32.6444 30.2594 32.6061 30.4638 32.5297ZM30.0773 31.0429C30.5126 30.9817 30.839 30.9075 31.0567 30.8202V31.0363C31.0567 31.2961 31.0245 31.4926 30.9601 31.6258C30.8757 31.7983 30.7436 31.9348 30.5637 32.0352C30.3838 32.1335 30.1784 32.1826 29.9474 32.1826C29.7143 32.1826 29.5366 32.1302 29.4145 32.0254C29.2945 31.9206 29.2346 31.7896 29.2346 31.6324C29.2346 31.5298 29.2623 31.437 29.3179 31.354C29.3734 31.2689 29.4522 31.2044 29.5544 31.1608C29.6565 31.1171 29.8308 31.0778 30.0773 31.0429ZM34.1435 32.0385L34.2301 32.5592C34.0613 32.5941 33.9103 32.6116 33.7771 32.6116C33.5595 32.6116 33.3907 32.5778 33.2708 32.5101C33.1509 32.4424 33.0665 32.354 33.0176 32.2448C32.9688 32.1335 32.9443 31.9009 32.9443 31.5472V29.5462H32.5046V29.0877H32.9443V28.2264L33.5406 27.8727V29.0877H34.1435V29.5462H33.5406V31.58C33.5406 31.7481 33.5506 31.8562 33.5706 31.9042C33.5928 31.9522 33.6272 31.9904 33.6738 32.0188C33.7227 32.0472 33.7915 32.0614 33.8804 32.0614C33.947 32.0614 34.0347 32.0538 34.1435 32.0385ZM34.9752 27.7646V28.4425H35.5748V27.7646H34.9752ZM35.5748 29.0877H34.9752V32.5658H35.5748V29.0877ZM36.5064 30.8267C36.5064 30.1826 36.6885 29.7056 37.0527 29.3955C37.357 29.1379 37.7278 29.0091 38.1653 29.0091C38.6516 29.0091 39.0491 29.1663 39.3578 29.4807C39.6665 29.7929 39.8208 30.2252 39.8208 30.7776C39.8208 31.2252 39.752 31.5778 39.6143 31.8354C39.4789 32.0909 39.2801 32.2896 39.0181 32.4315C38.7582 32.5734 38.474 32.6444 38.1653 32.6444C37.6701 32.6444 37.2692 32.4882 36.9628 32.176C36.6586 31.8638 36.5064 31.414 36.5064 30.8267ZM37.1227 30.8267C37.1227 31.2721 37.2215 31.6062 37.4191 31.8289C37.6168 32.0494 37.8655 32.1597 38.1653 32.1597C38.4629 32.1597 38.7105 32.0483 38.9081 31.8256C39.1058 31.6029 39.2046 31.2634 39.2046 30.8071C39.2046 30.377 39.1047 30.0516 38.9048 29.8311C38.7072 29.6084 38.4607 29.4971 38.1653 29.4971C37.8655 29.4971 37.6168 29.6073 37.4191 29.8279C37.2215 30.0484 37.1227 30.3813 37.1227 30.8267ZM41.3054 29.0877H40.7658V32.5658H41.3654V30.6663C41.3654 30.2208 41.4575 29.9185 41.6419 29.7591C41.8284 29.5997 42.0494 29.52 42.3047 29.52C42.4646 29.52 42.6034 29.556 42.7211 29.6281C42.841 29.6979 42.9243 29.7929 42.971 29.913C43.0176 30.0309 43.0409 30.2099 43.0409 30.4501V32.5658H43.6405V30.4272C43.6405 30.1543 43.6294 29.9632 43.6072 29.854C43.5717 29.6859 43.5095 29.5407 43.4207 29.4185C43.3318 29.2962 43.1975 29.198 43.0176 29.1237C42.8399 29.0473 42.6445 29.0091 42.4313 29.0091C41.9405 29.0091 41.5652 29.2001 41.3054 29.5822V29.0877ZM47.1104 32.1367C46.8883 32.3223 46.674 32.4533 46.4675 32.5297C46.2632 32.6061 46.0434 32.6444 45.808 32.6444C45.4193 32.6444 45.1207 32.5516 44.9119 32.366C44.7032 32.1782 44.5988 31.9391 44.5988 31.6488C44.5988 31.4785 44.6376 31.3234 44.7154 31.1837C44.7953 31.0418 44.8986 30.9283 45.0252 30.8431C45.154 30.758 45.2983 30.6935 45.4582 30.6499C45.5759 30.6193 45.7536 30.5898 45.9912 30.5615C46.4753 30.5047 46.8317 30.437 47.0604 30.3584C47.0627 30.2776 47.0638 30.2263 47.0638 30.2045C47.0638 29.9643 47.0071 29.7951 46.8939 29.6968C46.7407 29.5637 46.513 29.4971 46.211 29.4971C45.929 29.4971 45.7202 29.5462 45.5848 29.6444C45.4515 29.7405 45.3527 29.9119 45.2883 30.1586L44.702 30.08C44.7553 29.8333 44.8431 29.6346 44.9652 29.484C45.0873 29.3311 45.2639 29.2143 45.4948 29.1335C45.7258 29.0506 45.9934 29.0091 46.2976 29.0091C46.5996 29.0091 46.845 29.044 47.0338 29.1139C47.2225 29.1838 47.3613 29.2722 47.4502 29.3792C47.539 29.484 47.6012 29.6172 47.6367 29.7787C47.6567 29.8792 47.6667 30.0604 47.6667 30.3224V31.1084C47.6667 31.6564 47.6789 32.0035 47.7033 32.1498C47.73 32.2939 47.7811 32.4326 47.8566 32.5658H47.2303C47.1681 32.4435 47.1282 32.3005 47.1104 32.1367ZM47.0604 30.8202C46.8428 30.9075 46.5164 30.9817 46.0811 31.0429C45.8346 31.0778 45.6603 31.1171 45.5581 31.1608C45.456 31.2044 45.3771 31.2689 45.3216 31.354C45.2661 31.437 45.2383 31.5298 45.2383 31.6324C45.2383 31.7896 45.2983 31.9206 45.4182 32.0254C45.5404 32.1302 45.718 32.1826 45.9512 32.1826C46.1821 32.1826 46.3876 32.1335 46.5674 32.0352C46.7473 31.9348 46.8795 31.7983 46.9638 31.6258C47.0282 31.4926 47.0604 31.2961 47.0604 31.0363V30.8202ZM48.8248 27.7646V32.5658H49.4244V27.7646H48.8248ZM52.8433 32.5658V27.7646H56.1377V28.3312H53.4895V29.818H55.7813V30.3846H53.4895V32.5658H52.8433ZM57.146 27.7646V28.4425H57.7456V27.7646H57.146ZM57.7456 29.0877H57.146V32.5658H57.7456V29.0877ZM58.9004 29.0877H59.44V29.5822C59.6998 29.2001 60.0751 29.0091 60.5659 29.0091C60.7791 29.0091 60.9745 29.0473 61.1522 29.1237C61.332 29.198 61.4664 29.2962 61.5552 29.4185C61.6441 29.5407 61.7062 29.6859 61.7418 29.854C61.764 29.9632 61.7751 30.1543 61.7751 30.4272V32.5658H61.1755V30.4501C61.1755 30.2099 61.1522 30.0309 61.1055 29.913C61.0589 29.7929 60.9756 29.6979 60.8557 29.6281C60.738 29.556 60.5992 29.52 60.4393 29.52C60.1839 29.52 59.963 29.5997 59.7764 29.7591C59.5921 29.9185 59.5 30.2208 59.5 30.6663V32.5658H58.9004V29.0877ZM64.6021 32.5297C64.8086 32.4533 65.0229 32.3223 65.245 32.1367C65.2627 32.3005 65.3027 32.4435 65.3649 32.5658H65.9911C65.9156 32.4326 65.8646 32.2939 65.8379 32.1498C65.8135 32.0035 65.8013 31.6564 65.8013 31.1084V30.3224C65.8013 30.0604 65.7913 29.8792 65.7713 29.7787C65.7358 29.6172 65.6736 29.484 65.5847 29.3792C65.4959 29.2722 65.3571 29.1838 65.1684 29.1139C64.9796 29.044 64.7342 29.0091 64.4322 29.0091C64.128 29.0091 63.8604 29.0506 63.6294 29.1335C63.3985 29.2143 63.2219 29.3311 63.0998 29.484C62.9776 29.6346 62.8899 29.8333 62.8366 30.08L63.4229 30.1586C63.4873 29.9119 63.5861 29.7405 63.7194 29.6444C63.8548 29.5462 64.0636 29.4971 64.3456 29.4971C64.6476 29.4971 64.8752 29.5637 65.0285 29.6968C65.1417 29.7951 65.1983 29.9643 65.1983 30.2045C65.1983 30.2263 65.1972 30.2776 65.195 30.3584C64.9663 30.437 64.6099 30.5047 64.1257 30.5615C63.8881 30.5898 63.7105 30.6193 63.5928 30.6499C63.4329 30.6935 63.2885 30.758 63.1597 30.8431C63.0331 30.9283 62.9299 31.0418 62.8499 31.1837C62.7722 31.3234 62.7334 31.4785 62.7334 31.6488C62.7334 31.9391 62.8377 32.1782 63.0465 32.366C63.2552 32.5516 63.5539 32.6444 63.9425 32.6444C64.1779 32.6444 64.3978 32.6061 64.6021 32.5297ZM64.2157 31.0429C64.6509 30.9817 64.9774 30.9075 65.195 30.8202V31.0363C65.195 31.2961 65.1628 31.4926 65.0984 31.6258C65.014 31.7983 64.8819 31.9348 64.702 32.0352C64.5221 32.1335 64.3167 32.1826 64.0858 32.1826C63.8526 32.1826 63.6749 32.1302 63.5528 32.0254C63.4329 31.9206 63.3729 31.7896 63.3729 31.6324C63.3729 31.5298 63.4007 31.437 63.4562 31.354C63.5117 31.2689 63.5905 31.2044 63.6927 31.1608C63.7949 31.1171 63.9692 31.0778 64.2157 31.0429ZM66.9727 29.0877H67.5124V29.5822C67.7722 29.2001 68.1475 29.0091 68.6383 29.0091C68.8515 29.0091 69.0469 29.0473 69.2245 29.1237C69.4044 29.198 69.5388 29.2962 69.6276 29.4185C69.7164 29.5407 69.7786 29.6859 69.8141 29.854C69.8363 29.9632 69.8474 30.1543 69.8474 30.4272V32.5658H69.2478V30.4501C69.2478 30.2099 69.2245 30.0309 69.1779 29.913C69.1313 29.7929 69.048 29.6979 68.9281 29.6281C68.8104 29.556 68.6716 29.52 68.5117 29.52C68.2563 29.52 68.0353 29.5997 67.8488 29.7591C67.6645 29.9185 67.5723 30.2208 67.5723 30.6663V32.5658H66.9727V29.0877ZM73.9069 31.3671L73.3173 31.2918C73.2751 31.5865 73.1752 31.8049 73.0175 31.9468C72.8599 32.0887 72.6633 32.1597 72.4279 32.1597C72.1348 32.1597 71.8972 32.0538 71.7151 31.842C71.533 31.6302 71.442 31.2907 71.442 30.8235C71.442 30.3628 71.5363 30.0265 71.7251 29.8147C71.9138 29.6008 72.1592 29.4938 72.4613 29.4938C72.6611 29.4938 72.831 29.5527 72.9709 29.6706C73.113 29.7885 73.2119 29.9643 73.2674 30.1979L73.8503 30.1095C73.7815 29.758 73.6249 29.4872 73.3806 29.2973C73.1364 29.1052 72.8221 29.0091 72.4379 29.0091C72.1337 29.0091 71.8517 29.0801 71.5919 29.222C71.3343 29.3617 71.1422 29.5724 71.0156 29.854C70.889 30.1357 70.8257 30.4643 70.8257 30.8398C70.8257 31.4206 70.9723 31.8671 71.2654 32.1793C71.5608 32.4893 71.9505 32.6444 72.4346 32.6444C72.821 32.6444 73.1463 32.5319 73.4106 32.307C73.6771 32.08 73.8425 31.7667 73.9069 31.3671ZM77.0804 31.4457L77.7 31.521C77.6022 31.8769 77.4213 32.1531 77.157 32.3496C76.8927 32.5461 76.5552 32.6444 76.1443 32.6444C75.6269 32.6444 75.2161 32.4882 74.9119 32.176C74.6098 31.8616 74.4588 31.4217 74.4588 30.8562C74.4588 30.2711 74.6121 29.8169 74.9185 29.4938C75.225 29.1707 75.6225 29.0091 76.111 29.0091C76.5841 29.0091 76.9705 29.1674 77.2702 29.484C77.57 29.8006 77.7199 30.246 77.7199 30.8202C77.7199 30.8551 77.7188 30.9075 77.7166 30.9774H75.0784C75.1006 31.3595 75.2105 31.652 75.4082 31.8551C75.6058 32.0581 75.8523 32.1597 76.1477 32.1597C76.3675 32.1597 76.5552 32.1029 76.7106 31.9894C76.8661 31.8758 76.9893 31.6946 77.0804 31.4457ZM75.1117 30.4927H77.087C77.0604 30.2001 76.9849 29.9807 76.8605 29.8344C76.6695 29.6073 76.4219 29.4938 76.1177 29.4938C75.8423 29.4938 75.6103 29.5844 75.4215 29.7656C75.235 29.9468 75.1317 30.1892 75.1117 30.4927ZM85.0395 31.0429L84.3933 30.8824C84.3044 31.2863 84.1345 31.5909 83.8836 31.7961C83.6327 32.0014 83.3262 32.104 82.9642 32.104C82.6667 32.104 82.3902 32.0287 82.1348 31.878C81.8794 31.7274 81.6907 31.5003 81.5685 31.1968C81.4486 30.8911 81.3886 30.5342 81.3886 30.1259C81.3886 29.8093 81.4397 29.5025 81.5419 29.2056C81.644 28.9065 81.8206 28.6685 82.0715 28.4916C82.3247 28.3148 82.6389 28.2264 83.0142 28.2264C83.3406 28.2264 83.6116 28.3061 83.827 28.4654C84.0424 28.6248 84.2067 28.8792 84.32 29.2285L84.9562 29.0811C84.8252 28.6379 84.5931 28.2941 84.26 28.0495C83.9269 27.805 83.5161 27.6827 83.0275 27.6827C82.5967 27.6827 82.2014 27.7799 81.8417 27.9742C81.4841 28.1663 81.2076 28.4491 81.0122 28.8224C80.819 29.1936 80.7224 29.6292 80.7224 30.1292C80.7224 30.5877 80.8079 31.0167 80.9789 31.4162C81.1521 31.8158 81.4031 32.1214 81.7317 32.3332C82.0626 32.5428 82.4912 32.6476 83.0175 32.6476C83.5261 32.6476 83.9558 32.5112 84.3066 32.2383C84.6597 31.9632 84.904 31.5647 85.0395 31.0429ZM88.4228 31.4457L89.0424 31.521C88.9446 31.8769 88.7637 32.1531 88.4994 32.3496C88.2351 32.5461 87.8976 32.6444 87.4868 32.6444C86.9693 32.6444 86.5585 32.4882 86.2543 32.176C85.9522 31.8616 85.8012 31.4217 85.8012 30.8562C85.8012 30.2711 85.9545 29.8169 86.2609 29.4938C86.5674 29.1707 86.9649 29.0091 87.4534 29.0091C87.9265 29.0091 88.3129 29.1674 88.6127 29.484C88.9125 29.8006 89.0623 30.246 89.0623 30.8202C89.0623 30.8551 89.0612 30.9075 89.059 30.9774H86.4208C86.443 31.3595 86.5529 31.652 86.7506 31.8551C86.9482 32.0581 87.1947 32.1597 87.4901 32.1597C87.7099 32.1597 87.8976 32.1029 88.053 31.9894C88.2085 31.8758 88.3317 31.6946 88.4228 31.4457ZM86.4541 30.4927H88.4295C88.4028 30.2001 88.3273 29.9807 88.2029 29.8344C88.0119 29.6073 87.7643 29.4938 87.4601 29.4938C87.1847 29.4938 86.9527 29.5844 86.7639 29.7656C86.5774 29.9468 86.4741 30.1892 86.4541 30.4927ZM90.5769 29.0877H90.0373V32.5658H90.6369V30.6663C90.6369 30.2208 90.729 29.9185 90.9134 29.7591C91.0999 29.5997 91.3208 29.52 91.5762 29.52C91.7361 29.52 91.8749 29.556 91.9926 29.6281C92.1125 29.6979 92.1958 29.7929 92.2424 29.913C92.2891 30.0309 92.3124 30.2099 92.3124 30.4501V32.5658H92.912V30.4272C92.912 30.1543 92.9009 29.9632 92.8787 29.854C92.8431 29.6859 92.781 29.5407 92.6921 29.4185C92.6033 29.2962 92.469 29.198 92.2891 29.1237C92.1114 29.0473 91.916 29.0091 91.7028 29.0091C91.212 29.0091 90.8367 29.2001 90.5769 29.5822V29.0877ZM95.3826 32.0385L95.4692 32.5592C95.3004 32.5941 95.1494 32.6116 95.0162 32.6116C94.7985 32.6116 94.6298 32.5778 94.5098 32.5101C94.3899 32.4424 94.3055 32.354 94.2567 32.2448C94.2078 32.1335 94.1834 31.9009 94.1834 31.5472V29.5462H93.7437V29.0877H94.1834V28.2264L94.7796 27.8727V29.0877H95.3826V29.5462H94.7796V31.58C94.7796 31.7481 94.7896 31.8562 94.8096 31.9042C94.8318 31.9522 94.8663 31.9904 94.9129 32.0188C94.9617 32.0472 95.0306 32.0614 95.1194 32.0614C95.186 32.0614 95.2738 32.0538 95.3826 32.0385ZM99.2522 31.521L98.6326 31.4457C98.5416 31.6946 98.4183 31.8758 98.2629 31.9894C98.1074 32.1029 97.9198 32.1597 97.6999 32.1597C97.4046 32.1597 97.1581 32.0581 96.9604 31.8551C96.7628 31.652 96.6529 31.3595 96.6307 30.9774H99.2689C99.2711 30.9075 99.2722 30.8551 99.2722 30.8202C99.2722 30.246 99.1223 29.8006 98.8225 29.484C98.5227 29.1674 98.1363 29.0091 97.6633 29.0091C97.1747 29.0091 96.7772 29.1707 96.4708 29.4938C96.1643 29.8169 96.0111 30.2711 96.0111 30.8562C96.0111 31.4217 96.1621 31.8616 96.4641 32.176C96.7683 32.4882 97.1792 32.6444 97.6966 32.6444C98.1074 32.6444 98.445 32.5461 98.7092 32.3496C98.9735 32.1531 99.1545 31.8769 99.2522 31.521ZM98.6393 30.4927H96.664C96.684 30.1892 96.7872 29.9468 96.9737 29.7656C97.1625 29.5844 97.3946 29.4938 97.6699 29.4938C97.9742 29.4938 98.2218 29.6073 98.4128 29.8344C98.5371 29.9807 98.6126 30.2001 98.6393 30.4927ZM100.24 29.0877H100.78V29.615C100.918 29.3683 101.044 29.2056 101.16 29.127C101.278 29.0484 101.406 29.0091 101.546 29.0091C101.748 29.0091 101.954 29.0724 102.162 29.199L101.956 29.746C101.809 29.6608 101.663 29.6182 101.516 29.6182C101.385 29.6182 101.268 29.6575 101.163 29.7361C101.059 29.8126 100.984 29.9195 100.94 30.0571C100.873 30.2667 100.84 30.496 100.84 30.7449V32.5658H100.24V29.0877ZM103.111 31.4359L102.518 31.5276C102.584 31.8966 102.738 32.1749 102.978 32.3627C103.22 32.5505 103.57 32.6444 104.03 32.6444C104.308 32.6444 104.556 32.5974 104.776 32.5035C104.996 32.4075 105.164 32.2732 105.279 32.1007C105.397 31.926 105.456 31.7405 105.456 31.544C105.456 31.3431 105.408 31.175 105.313 31.0396C105.217 30.9042 105.085 30.8016 104.916 30.7318C104.75 30.6597 104.454 30.568 104.03 30.4566C103.737 30.378 103.56 30.3278 103.501 30.306C103.396 30.2645 103.32 30.2121 103.271 30.1488C103.222 30.0877 103.197 30.0189 103.197 29.9425C103.197 29.8224 103.256 29.7176 103.374 29.6281C103.492 29.5386 103.688 29.4938 103.964 29.4938C104.197 29.4938 104.377 29.544 104.503 29.6444C104.632 29.7449 104.71 29.8846 104.736 30.0637L105.323 29.985C105.285 29.7602 105.216 29.5811 105.116 29.4479C105.016 29.3126 104.861 29.2056 104.65 29.127C104.441 29.0484 104.198 29.0091 103.92 29.0091C103.736 29.0091 103.563 29.0331 103.401 29.0811C103.241 29.127 103.114 29.1838 103.021 29.2514C102.896 29.3388 102.798 29.449 102.724 29.5822C102.653 29.7132 102.618 29.8562 102.618 30.0112C102.618 30.1815 102.661 30.3377 102.748 30.4796C102.837 30.6193 102.965 30.7296 103.134 30.8104C103.305 30.889 103.61 30.9828 104.05 31.092C104.377 31.1728 104.581 31.2394 104.663 31.2918C104.781 31.3682 104.84 31.473 104.84 31.6062C104.84 31.7546 104.773 31.8846 104.64 31.9959C104.506 32.1051 104.302 32.1597 104.027 32.1597C103.754 32.1597 103.54 32.0974 103.387 31.973C103.236 31.8485 103.144 31.6695 103.111 31.4359Z" fill="white"></path> </svg> 