<?xml version="1.0" encoding="UTF-8"?> <svg xmlns="http://www.w3.org/2000/svg" width="32" height="33" viewBox="0 0 32 33" fill="none"> <path fill-rule="evenodd" clip-rule="evenodd" d="M16 0.666992C7.16347 0.666992 0 7.83046 0 16.667C0 25.5035 7.16347 32.667 16 32.667C24.8365 32.667 32 25.5035 32 16.667C32 7.83046 24.8365 0.666992 16 0.666992ZM7.68107 13.9189H11.307V24.8134H7.68107V13.9189ZM11.5459 10.5488C11.5223 9.48059 10.7585 8.66699 9.518 8.66699C8.2776 8.66699 7.46667 9.48059 7.46667 10.5488C7.46667 11.5949 8.25367 12.4319 9.47093 12.4319H9.49413C10.7585 12.4319 11.5459 11.5949 11.5459 10.5488ZM20.2087 13.6631C22.5948 13.6631 24.3836 15.2205 24.3836 18.5668L24.3835 24.8134H20.7577V18.9848C20.7577 17.5208 20.2329 16.5218 18.9203 16.5218C17.9186 16.5218 17.3219 17.1953 17.0599 17.8458C16.964 18.0789 16.9405 18.4037 16.9405 18.7293V24.8137H13.3141C13.3141 24.8137 13.3619 14.9415 13.3141 13.9192H16.9405V15.4623C17.4217 14.7205 18.2836 13.6631 20.2087 13.6631Z" fill="white"></path> </svg> 