<?xml version="1.0" encoding="UTF-8"?> <svg xmlns="http://www.w3.org/2000/svg" width="106" height="17" viewBox="0 0 106 17" fill="none"> <g clip-path="url(#clip0_1_530)"> <path d="M7.04711 11.6748C7.20224 12.0381 7.1512 12.5044 7.07313 12.7897C6.94303 13.282 6.60677 13.8005 5.622 13.8005C4.69027 13.8005 4.12083 13.256 4.12083 12.4524V11.0013H0.104694V12.1422C0.104694 15.4838 2.72074 16.4946 5.54494 16.4946C8.23904 16.4946 10.4668 15.5618 10.8291 13.0749C11.0102 11.7789 10.8811 10.9502 10.803 10.613C10.1826 7.47752 4.50813 6.54479 4.06779 4.80843C3.99073 4.49819 4.01675 4.18795 4.04177 4.03183C4.14585 3.56546 4.48211 3.02104 5.41484 3.02104C6.29553 3.02104 6.81393 3.56546 6.81393 4.36809V5.30182H10.5448V4.23899C10.5448 0.97444 7.61756 0.482056 5.4929 0.482056C2.82482 0.482056 0.674139 1.36274 0.259815 3.79865C0.156735 4.47217 0.129714 5.06864 0.285836 5.82022C0.959361 8.85059 6.27051 9.73228 7.04711 11.6748ZM55.619 11.6498C55.7742 12.0121 55.7221 12.4784 55.6451 12.7376C55.515 13.23 55.1787 13.7224 54.1939 13.7224C53.2612 13.7224 52.7178 13.178 52.7178 12.3743V10.9502H48.7547V12.0901C48.7547 15.3807 51.3447 16.3905 54.1419 16.3905C56.811 16.3905 59.0127 15.4838 59.376 12.9968C59.5561 11.7268 59.426 10.8722 59.3489 10.5609C58.7275 7.4515 53.1061 6.54479 52.6917 4.80943C52.6137 4.49819 52.6397 4.18695 52.6657 4.03183C52.7698 3.56546 53.0801 3.04706 54.0128 3.04706C54.8674 3.04706 55.3858 3.59148 55.3858 4.39411V5.30182H59.0897V4.26501C59.0897 1.0525 56.1885 0.534096 54.0908 0.534096C51.4738 0.534096 49.3241 1.41478 48.9098 3.82467C48.8057 4.47217 48.7797 5.06864 48.9358 5.81922C49.6093 8.85159 54.8674 9.73228 55.619 11.6498ZM86.6272 12.9708L86.4201 0.948419H90.124V15.7169H84.7878L81.0319 3.30626L81.239 15.7169H77.5602V0.948419H83.1045L86.6272 12.9708ZM19.4548 2.03627L17.3832 15.8731H13.342L16.0882 0.948419H22.7454L25.4915 15.8731H21.4764L19.4548 2.03627ZM41.2678 2.03627L38.6768 15.8741H34.8949L32.3309 2.03627L32.2268 15.8731H28.4969L28.8071 0.948419H34.8949L36.7863 12.6075L38.6778 0.948419H44.7646L45.1018 15.8731H41.3709L41.2678 2.03627ZM68.1568 13.6453C69.1926 13.6453 69.5299 12.9188 69.5819 12.5565C69.608 12.4004 69.608 12.1672 69.608 11.986V0.922399H73.3899V11.6508C73.3899 11.935 73.3639 12.4794 73.3639 12.6345C73.1047 15.4337 70.902 16.3404 68.1568 16.3404C65.4107 16.3404 63.209 15.4337 62.9498 12.6345C62.9237 12.4794 62.8977 11.935 62.9237 11.6508V0.922399H66.7067V11.986C66.7067 12.1672 66.7067 12.4004 66.7317 12.5565C66.8098 12.9448 67.121 13.6443 68.1568 13.6443V13.6453ZM99.3462 13.4892C100.434 13.4892 100.797 12.7887 100.874 12.4004C100.9 12.2202 100.926 12.0121 100.9 11.8299V9.65422H99.3722V7.47752H104.656V11.4937C104.656 11.7789 104.656 11.986 104.605 12.4784C104.346 15.1995 101.988 16.1573 99.3462 16.1573C96.7041 16.1573 94.3463 15.1995 94.0881 12.4784C94.036 11.986 94.036 11.7789 94.036 11.4937V5.19774C94.036 4.93853 94.062 4.47217 94.0881 4.21297C94.4243 1.41478 96.6781 0.534096 99.3462 0.534096C101.988 0.534096 104.32 1.41478 104.579 4.21297C104.631 4.67933 104.605 5.19774 104.605 5.19774V5.69012H100.822V4.86047C100.822 4.86047 100.822 4.49819 100.771 4.29003C100.693 3.95377 100.409 3.20218 99.2691 3.20218C98.1803 3.20218 97.87 3.92775 97.792 4.29103C97.7399 4.49819 97.7399 4.75739 97.7399 4.99058V11.8309C97.7399 12.0121 97.7399 12.2192 97.7659 12.4014C97.87 12.8157 98.2583 13.4892 99.3472 13.4892H99.3462Z" fill="white"></path> </g> <defs> <clipPath id="clip0_1_530"> <rect width="105.082" height="16.0125" fill="white" transform="translate(0.104694 0.482056)"></rect> </clipPath> </defs> </svg> 