<?xml version="1.0" encoding="UTF-8"?> <svg xmlns="http://www.w3.org/2000/svg" width="237" height="237" viewBox="0 0 237 237" fill="none"> <path d="M118.5 0C53.1056 0 0 52.9489 0 118.15C0 183.352 53.1056 236.301 118.5 236.301C183.895 236.301 237 183.352 237 118.15C237 52.9489 183.895 0 118.5 0ZM120.256 45.218C139.713 45.218 155.367 60.9714 155.367 80.2256C155.367 99.6256 139.567 115.233 120.256 115.233C100.798 115.233 85.1445 99.4797 85.1445 80.2256C84.9982 60.9714 100.798 45.218 120.256 45.218ZM83.3889 175.329C63.9315 175.329 48.2778 159.576 48.2778 140.322C48.2778 120.922 64.0778 105.314 83.3889 105.314C102.846 105.314 118.5 121.068 118.5 140.322C118.5 159.722 102.846 175.329 83.3889 175.329ZM153.904 177.08C134.446 177.08 118.793 161.326 118.793 142.072C118.793 122.672 134.593 107.065 153.904 107.065C173.361 107.065 189.015 122.818 189.015 142.072C189.015 161.326 173.361 177.08 153.904 177.08Z" fill="white"></path> </svg> 