<?xml version="1.0" encoding="UTF-8"?> <svg xmlns="http://www.w3.org/2000/svg" width="173" height="22" viewBox="0 0 173 22" fill="none"> <g clip-path="url(#clip0_20_102)"> <path d="M4.11492 20.3543C2.81804 19.6729 1.80393 18.7287 1.08236 17.5217C0.360787 16.3146 0 14.9421 0 13.4139C0 11.8856 0.360787 10.5131 1.08236 9.31578C1.80393 8.11848 2.81804 7.18401 4.11492 6.51235C5.42155 5.84069 6.89396 5.5 8.54187 5.5C10.2288 5.5 11.6817 5.8699 12.9103 6.61943C14.1389 7.36895 15.0068 8.40077 15.5236 9.72461L11.4867 11.8467C10.8139 10.4644 9.81926 9.77328 8.52237 9.77328C7.58628 9.77328 6.81595 10.0945 6.20163 10.737C5.58732 11.3794 5.28504 12.2652 5.28504 13.4041C5.28504 14.5527 5.58732 15.458 6.20163 16.1102C6.81595 16.7624 7.58628 17.0836 8.52237 17.0836C9.81926 17.0836 10.8139 16.3925 11.4867 15.0102L15.5236 17.1323C15.0068 18.4561 14.1389 19.4879 12.9103 20.2375C11.6817 20.987 10.2288 21.3569 8.54187 21.3569C6.89396 21.3764 5.42155 21.0357 4.11492 20.3543Z" fill="white"></path> <path d="M33.8652 0.0488281H39.0332V21.1719H33.8164L33.8652 0.0488281Z" fill="white"></path> <path d="M40.8859 0.0488281H46.1515L46.132 21.1719H40.9152L40.8859 0.0488281Z" fill="white"></path> <path d="M63.8886 14.8056H53.065C53.2893 15.6038 53.7086 16.2073 54.3424 16.6356C54.9762 17.0639 55.766 17.2781 56.7216 17.2781C57.4334 17.2781 58.0575 17.171 58.5743 16.9666C59.0911 16.7622 59.6177 16.4215 60.154 15.9445L62.9037 18.894C61.4606 20.5585 59.3446 21.3859 56.5559 21.3859C54.8202 21.3859 53.2893 21.0452 51.9729 20.3638C50.6565 19.6824 49.6326 18.7382 48.9111 17.5312C48.1895 16.3241 47.8287 14.9516 47.8287 13.4234C47.8287 11.9146 48.1797 10.5518 48.8818 9.3545C49.5839 8.15721 50.559 7.21299 51.8071 6.53161C53.0552 5.85022 54.4496 5.50952 56.0098 5.50952C57.4919 5.50952 58.8376 5.83075 60.0467 6.46347C61.2558 7.09619 62.2114 8.01119 62.9135 9.20849C63.6156 10.4058 63.9666 11.827 63.9666 13.472C63.9666 13.511 63.9471 13.949 63.8886 14.8056ZM54.0206 10.0359C53.4843 10.5129 53.1333 11.1553 52.987 11.9633H59.0814C58.9351 11.1553 58.5938 10.5129 58.0478 10.0359C57.5114 9.55892 56.8386 9.3253 56.0293 9.3253C55.2297 9.3253 54.5569 9.56865 54.0206 10.0359Z" fill="white"></path> <path d="M69.3492 20.3541C68.0523 19.6727 67.0382 18.7285 66.3166 17.5214C65.595 16.3144 65.2343 14.9419 65.2343 13.4136C65.2343 11.8854 65.595 10.5129 66.3166 9.31557C67.0382 8.11827 68.0523 7.18379 69.3492 6.51214C70.6461 5.84048 72.1185 5.50952 73.7664 5.50952C75.4533 5.50952 76.9062 5.87942 78.1348 6.62895C79.3634 7.37847 80.2313 8.41029 80.7481 9.73413L76.7112 11.8562C76.0384 10.4739 75.0438 9.78281 73.7469 9.78281C72.8108 9.78281 72.0404 10.104 71.4261 10.7465C70.8118 11.3889 70.5095 12.2747 70.5095 13.4136C70.5095 14.5623 70.8118 15.4675 71.4261 16.1197C72.0404 16.7719 72.8108 17.0931 73.7469 17.0931C75.0438 17.0931 76.0384 16.402 76.7112 15.0198L80.7481 17.1418C80.2313 18.4657 79.3634 19.4975 78.1348 20.247C76.9062 20.9965 75.4533 21.3664 73.7664 21.3664C72.1185 21.3762 70.6461 21.0355 69.3492 20.3541Z" fill="white"></path> <path d="M82.3277 5.79197V0.0488281H87.5445L87.4957 5.69463H90.9086V10.1723L87.5445 10.1626V15.2633C87.5445 15.8084 87.6907 16.2367 87.9735 16.5579C88.2563 16.8694 88.6366 17.0252 89.1144 17.0252C89.7189 17.0252 90.4405 16.8694 90.8988 16.5385L92.1859 20.3056C91.7472 20.5879 91.0158 20.802 90.382 20.9577C89.7482 21.1135 89.0754 21.1816 88.3636 21.1816C86.4231 21.1816 84.9312 20.6949 83.8878 19.7118C82.8445 18.7286 82.3179 17.2685 82.3179 15.3217V10.7564L82.3277 5.79197Z" fill="white"></path> <path d="M118.046 5.7627L111.902 21.1232H106.52L100.396 5.7627H105.75L109.318 15.1464L113.082 5.7627H118.046V5.7627Z" fill="white"></path> <path d="M133.832 14.8056H123.009C123.233 15.6038 123.652 16.2073 124.286 16.6356C124.92 17.0639 125.71 17.2781 126.665 17.2781C127.377 17.2781 128.001 17.171 128.518 16.9666C129.045 16.7622 129.561 16.4215 130.098 15.9445L132.848 18.894C131.404 20.5585 129.288 21.3859 126.5 21.3859C124.764 21.3859 123.233 21.0452 121.917 20.3638C120.6 19.6824 119.576 18.7382 118.855 17.5312C118.133 16.3241 117.773 14.9516 117.773 13.4234C117.773 11.9146 118.124 10.5518 118.826 9.35451C119.528 8.15721 120.503 7.213 121.751 6.53161C122.999 5.85022 124.393 5.50952 125.954 5.50952C127.436 5.50952 128.781 5.83075 129.991 6.46347C131.2 7.09619 132.155 8.01119 132.857 9.20849C133.559 10.4058 133.91 11.827 133.91 13.472C133.91 13.511 133.881 13.949 133.832 14.8056ZM123.955 10.0359C123.418 10.5129 123.067 11.1553 122.921 11.9633H129.015C128.869 11.1553 128.528 10.5129 127.982 10.0359C127.446 9.55892 126.773 9.3253 125.963 9.3253C125.174 9.3253 124.501 9.56866 123.955 10.0359Z" fill="white"></path> <path d="M152.047 5.7041L148.8 14.8055H145.709L143.993 9.85084L142.208 14.8055H139.117L135.87 5.7041H138.893L140.756 11.2136L142.686 5.7041H145.407L147.289 11.2623L149.219 5.7041H152.047V5.7041Z" fill="white"></path> <path d="M161.33 11.0285L154.7 11.0674C154.836 11.5347 155.099 11.8948 155.489 12.1479C155.879 12.401 156.367 12.5178 156.942 12.5178C157.381 12.5178 157.761 12.4497 158.073 12.3231C158.395 12.1966 158.717 11.9922 159.039 11.7099L160.735 13.4426C159.858 14.4355 158.561 14.9319 156.864 14.9416C155.801 14.9514 154.865 14.7567 154.056 14.3576C153.247 13.9585 152.613 13.4036 152.174 12.693C151.725 11.9824 151.501 11.1648 151.491 10.2595C151.482 9.36397 151.696 8.55603 152.125 7.84544C152.554 7.13485 153.149 6.57027 153.91 6.16144C154.67 5.7526 155.528 5.54819 156.474 5.53845C157.381 5.52872 158.21 5.71367 158.951 6.08356C159.692 6.45346 160.287 6.98884 160.716 7.69943C161.155 8.41002 161.369 9.24716 161.379 10.2206C161.379 10.2595 161.359 10.5223 161.33 11.0285ZM155.265 8.24454C154.934 8.52683 154.729 8.90646 154.641 9.39317L158.376 9.36397C158.278 8.88699 158.073 8.50736 157.742 8.22507C157.41 7.95252 157.001 7.80651 156.503 7.81624C156.006 7.81624 155.597 7.96225 155.265 8.24454Z" fill="white"></path> <path d="M169.931 6.27832C170.613 6.64821 171.149 7.18359 171.549 7.88445C171.949 8.58531 172.144 9.39324 172.144 10.3082C172.144 11.233 171.949 12.0409 171.549 12.7418C171.149 13.4426 170.613 13.9878 169.931 14.3674C169.248 14.747 168.497 14.932 167.668 14.932C166.469 14.932 165.572 14.5815 164.977 13.8904V14.7762H162.198V2.57935H165.133V6.64821C165.747 6.03496 166.596 5.72347 167.668 5.72347C168.497 5.72347 169.248 5.90842 169.931 6.27832ZM169.219 12.002C169.667 11.5737 169.892 10.9896 169.892 10.2304C169.892 9.49058 169.667 8.90653 169.219 8.48797C168.77 8.0694 168.185 7.85525 167.483 7.85525C166.781 7.85525 166.196 8.0694 165.747 8.48797C165.299 8.90653 165.075 9.49058 165.075 10.2304C165.075 10.9799 165.299 11.5737 165.747 12.002C166.196 12.4303 166.781 12.6444 167.483 12.6444C168.185 12.6444 168.77 12.4303 169.219 12.002Z" fill="white"></path> <path d="M24.1825 5.53857C19.8238 5.53857 16.2842 9.07207 16.2842 13.4232C16.2842 17.7744 19.8238 21.3079 24.1825 21.3079C28.5412 21.3079 32.0808 17.7744 32.0808 13.4232C32.0808 9.07207 28.5412 5.53857 24.1825 5.53857ZM24.2995 8.55616C25.5964 8.55616 26.6397 9.60744 26.6397 10.8924C26.6397 12.187 25.5866 13.2285 24.2995 13.2285C23.0026 13.2285 21.9593 12.1773 21.9593 10.8924C21.9495 9.60744 23.0026 8.55616 24.2995 8.55616ZM21.8422 17.239C20.5454 17.239 19.502 16.1877 19.502 14.9028C19.502 13.6082 20.5551 12.5666 21.8422 12.5666C23.1391 12.5666 24.1825 13.6179 24.1825 14.9028C24.1825 16.1975 23.1391 17.239 21.8422 17.239ZM26.5422 17.3558C25.2453 17.3558 24.202 16.3045 24.202 15.0196C24.202 13.725 25.2551 12.6834 26.5422 12.6834C27.8391 12.6834 28.8825 13.7347 28.8825 15.0196C28.8825 16.3045 27.8391 17.3558 26.5422 17.3558Z" fill="white"></path> <path d="M101.8 16.587C101.342 16.9083 100.621 17.0738 100.016 17.0738C99.5382 17.0738 99.1579 16.918 98.8751 16.6065C98.5923 16.295 98.4461 15.8667 98.4461 15.3119L98.4168 5.68481H93.2293V15.3703C93.2293 17.3171 93.7558 18.7772 94.7992 19.7604C95.8425 20.7435 97.3344 21.2302 99.2749 21.2302C99.9867 21.2302 100.66 21.1524 101.293 21.0063C101.927 20.8506 102.658 20.6365 103.097 20.3542L101.8 16.587Z" fill="white"></path> <path d="M95.8231 4.68215C97.1199 4.68215 98.1633 3.63086 98.1633 2.34596C98.1633 1.05132 97.1102 0.00976562 95.8231 0.00976562C94.5262 0.00976562 93.4828 1.06105 93.4828 2.34596C93.4731 3.63086 94.5262 4.68215 95.8231 4.68215Z" fill="white"></path> </g> <defs> <clipPath id="clip0_20_102"> <rect width="172.134" height="21.3762" fill="white"></rect> </clipPath> </defs> </svg> 