<?xml version="1.0" encoding="UTF-8"?> <svg xmlns="http://www.w3.org/2000/svg" width="163" height="128" viewBox="0 0 163 128" fill="none"> <path fill-rule="evenodd" clip-rule="evenodd" d="M73.1791 117.947C72.6459 57.3521 61.7804 20.7694 61.7804 20.7694C52.9315 -7.71945 36.6833 20.8758 36.6833 20.8758C17.853 51.0545 17.0933 125.603 17.0933 125.603L-0.000106505 125.322C-0.000106505 125.322 4.75277 62.2148 23.3674 25.0775C23.3674 25.0775 37.139 -1.26185 50.8579 0.0474893C50.8579 0.0474893 72.4712 -1.74792 82.686 56.8609C95.0647 -1.37623 116.598 1.12902 116.598 1.12902C130.357 0.271736 143.145 27.048 143.145 27.048C160.372 64.775 162.787 128 162.787 128L145.693 127.719C145.693 127.719 147.693 53.1905 129.993 22.4109C129.993 22.4109 114.813 -6.70141 104.913 21.479C104.913 21.479 92.6996 57.682 89.9231 118.222L73.1791 117.947Z" fill="white"></path> </svg> 