<?xml version="1.0" encoding="UTF-8"?> <svg xmlns="http://www.w3.org/2000/svg" width="85" height="35" viewBox="0 0 85 35" fill="none"> <g clip-path="url(#clip0_1_517)"> <path d="M0.188965 26.729C0.188965 22.5121 3.36802 19.5894 7.62961 19.5894C8.89031 19.5894 10.0825 19.8538 11.0964 20.3687V23.8481C10.1236 23.2497 9.1506 22.8461 7.65705 22.8461C5.40973 22.8461 3.71059 24.4744 3.71059 26.729C3.71059 29.0254 5.45084 30.6119 7.79403 30.6119C9.09583 30.6119 10.2469 30.3475 11.343 29.4985V32.9779C10.3016 33.5346 8.99985 33.8269 7.65705 33.8269C3.40913 33.8687 0.188965 30.9459 0.188965 26.729Z" fill="white"></path> <path d="M13.6719 19.8399H19.9615C22.9625 19.8399 24.7986 21.6213 24.7986 24.0987C24.7986 25.8801 23.8257 27.2858 22.195 27.9538L26.2374 33.5764H22.2636L18.509 28.3574H17.1387V33.6181H13.6993V19.8399H13.6719ZM19.8107 25.4626C20.7562 25.4626 21.3318 24.9754 21.3318 24.1683C21.3318 23.3611 20.7562 22.8321 19.8107 22.8321H17.1387V25.4626H19.8107Z" fill="white"></path> <path d="M44.9004 19.8399H47.8328L53.725 27.397V19.8399H57.0822V33.5764H54.2321L48.2988 25.9915V33.5764H44.9004V19.8399Z" fill="white"></path> <path d="M59.4277 26.729C59.4277 22.5121 62.6067 19.5894 66.8683 19.5894C68.1289 19.5894 69.321 19.8538 70.3351 20.3687V23.8481C69.3622 23.2497 68.3893 22.8461 66.8956 22.8461C64.6484 22.8461 62.9492 24.4744 62.9492 26.729C62.9492 29.0254 64.6895 30.6119 67.0327 30.6119C68.3344 30.6119 69.4855 30.3475 70.5817 29.4985V32.9779C69.5403 33.5346 68.2386 33.8269 66.8956 33.8269C62.6479 33.8687 59.4277 30.9459 59.4277 26.729Z" fill="white"></path> <path d="M72.9106 19.8399H76.3774V24.7249H81.4475V19.8399H84.8732V33.5764H81.4475V27.8703H76.3774V33.5764H72.9106V19.8399Z" fill="white"></path> <path d="M33.5139 30.612C32.2121 30.612 31.0885 29.8744 31.0885 28.0234V19.8399H27.6492V27.8424C27.6492 31.8089 30.2938 33.8826 33.5414 33.8826V30.6259H33.5139V30.612Z" fill="white"></path> <path d="M36.6251 30.612C37.9268 30.612 39.0505 29.8744 39.0505 28.0234V19.8399H42.4899V27.8424C42.4899 31.8089 39.8453 33.8826 36.5977 33.8826V30.6259H36.6251V30.612Z" fill="white"></path> <path d="M13.5206 0.954163H18.8647C23.2359 0.954163 26.278 3.76541 26.278 7.84321C26.278 11.921 23.2359 14.7324 18.8647 14.7324H13.5206V0.954163ZM18.6181 11.587C21.2217 11.587 22.7016 10.2231 22.7016 7.81545C22.7016 5.4077 21.2217 4.04377 18.6181 4.04377H16.96V11.6009H18.6181V11.587Z" fill="white"></path> <path d="M1.02411 0.954163V14.6906H11.219V11.587H4.44982V9.402H11.2053V6.28452H4.44982V4.05776H11.2053V0.954163H1.02411Z" fill="white"></path> </g> <defs> <clipPath id="clip0_1_517"> <rect width="84.3251" height="33.3594" fill="white" transform="translate(0.5047 0.736694)"></rect> </clipPath> </defs> </svg> 