<?xml version="1.0" encoding="UTF-8"?> <svg xmlns="http://www.w3.org/2000/svg" width="56" height="59" viewBox="0 0 56 59" fill="none"> <path d="M32.4902 45.9483H16.1299V34.7408H32.4902C36.7325 34.7408 39.0254 37.1167 39.0254 40.2601C39.0254 43.4004 36.7325 45.9483 32.4902 45.9483ZM16.1299 12.6584H30.7941C34.5289 12.6584 36.7325 14.2723 36.7325 17.8381C36.7325 20.9806 34.5289 22.8494 30.7941 22.8494H16.1299V12.6584ZM44.7981 28.1146C50.0583 26.4145 53.4559 21.6608 53.4559 15.8009C53.4559 6.28656 46.155 0 33.0837 0H0V58.6041H33.4227C47.5994 58.6041 56 51.8949 56 41.1087C56 34.9948 51.5858 29.8978 44.7981 28.1146Z" fill="white"></path> </svg> 