<?xml version="1.0" encoding="UTF-8"?> <svg xmlns="http://www.w3.org/2000/svg" width="36" height="17" viewBox="0 0 36 17" fill="none"> <path d="M10.0312 4.90559L8.11341 6.33782C7.20752 5.55869 6.03772 5.40598 5.39648 5.40598C4.75524 5.40598 4.0621 5.59205 3.96054 6.05982C3.85824 6.51351 4.28005 6.86638 5.00432 7.06283C5.83015 7.28522 6.58259 7.48241 7.74127 7.81304C9.4641 8.30454 10.6421 9.0503 10.6421 10.7783C10.6421 13.1609 8.52707 14.396 5.69375 14.396C2.86042 14.396 0.930028 12.92 0.356247 12.2313L2.38376 10.7153C3.80783 11.957 4.79823 12.132 5.62629 12.132C6.57592 12.132 7.46402 11.9281 7.57818 11.3906C7.67085 10.9592 7.31279 10.616 6.50401 10.4269C5.58848 10.2157 4.81603 10.0459 3.95387 9.81905C1.61723 9.20598 0.958199 7.84714 0.958199 6.62693C0.958199 4.94636 2.52238 3.22057 5.38313 3.22057C8.31654 3.22057 10.0342 4.90114 10.0342 4.90114L10.0312 4.90559ZM22.2585 3.38885H13.7059V14.0794H22.4127V11.6153H16.709V9.89392H20.638V7.53653H16.709V5.83149H22.2563L22.2585 3.38885ZM11.4931 16.5458H12.1603V0.923218H11.4931V16.5458ZM23.5358 16.5458H24.203V0.923218H23.5358V16.5458ZM25.745 14.0794H32.6125C34.4488 14.0794 35.9366 12.9726 35.9366 11.2001C35.9366 9.81757 35.0315 8.90204 33.7631 8.49654C33.7226 8.48778 33.6814 8.48257 33.64 8.48097C33.6815 8.47716 33.7227 8.46997 33.7631 8.45947C34.4896 8.17184 35.2946 7.40605 35.2946 6.10207C35.2946 4.44819 33.8313 3.39329 32.0254 3.39329H25.745V14.0794ZM28.7621 5.61577H31.161C31.7133 5.61577 32.1603 6.05167 32.1603 6.5528C32.1603 7.05393 31.7155 7.49131 31.161 7.49131H28.7621V5.61577ZM31.6963 11.7042H28.7621V9.7553H31.6963C31.948 9.76512 32.1862 9.87205 32.3609 10.0536C32.5355 10.2353 32.6331 10.4774 32.6331 10.7294C32.6331 10.9814 32.5355 11.2235 32.3609 11.4051C32.1862 11.5867 31.948 11.6937 31.6963 11.7035V11.7042Z" fill="white"></path> </svg> 